<?xml version="1.0" encoding="UTF-8" standalone="no" ?>
<!DOCTYPE svg PUBLIC "-//W3C//DTD SVG 1.1//EN" "http://www.w3.org/Graphics/SVG/1.1/DTD/svg11.dtd">
<svg xmlns="http://www.w3.org/2000/svg" xmlns:xlink="http://www.w3.org/1999/xlink" version="1.1" width="546" height="520" viewBox="0 0 546 520" xml:space="preserve">
<desc>Created with Fabric.js 3.6.6</desc>
<defs>
</defs>
<g transform="matrix(1 0 0 1 273 260)"  >
<g style=""   >
		<g transform="matrix(1 0 0 1 -246.34 154.11)" id="Layer_1"  >
<path style="stroke: none; stroke-width: 1; stroke-dasharray: none; stroke-linecap: butt; stroke-dashoffset: 0; stroke-linejoin: miter; stroke-miterlimit: 4; fill: rgb(17,99,111); fill-rule: nonzero; opacity: 1;"  transform=" translate(-253.66, -654.11)" d="M 278.26 660.19 c -1.24 -2.58 -2.87 -4.67 -4.89 -6.29 c -2.03 -1.61 -4.24 -2.95 -6.65 -4.02 c -2.41 -1.06 -4.84 -2.01 -7.32 -2.83 c -2.47 -0.82 -4.72 -1.7 -6.75 -2.63 c -2.03 -0.93 -3.66 -1.99 -4.89 -3.19 c -1.24 -1.2 -1.85 -2.8 -1.85 -4.79 c 0 -2.27 0.93 -4.03 2.78 -5.31 c 1.85 -1.27 4.4 -1.91 7.62 -1.91 c 2.82 0 5.34 0.55 7.57 1.65 c 2.23 1.1 4.41 2.82 6.54 5.15 l 9.27 -9.27 c -2.47 -2.95 -5.72 -5.36 -9.74 -7.21 c -4.02 -1.86 -8.5 -2.78 -13.45 -2.78 c -4.67 0 -8.86 0.82 -12.57 2.47 c -3.71 1.65 -6.63 4.02 -8.76 7.11 c -2.13 3.09 -3.19 6.84 -3.19 11.23 c 0 3.78 0.6 6.87 1.8 9.27 c 1.2 2.41 2.83 4.4 4.89 5.98 c 2.06 1.58 4.29 2.89 6.7 3.91 c 2.4 1.03 4.83 1.94 7.26 2.73 c 2.44 0.79 4.67 1.65 6.7 2.58 c 2.03 0.93 3.66 2.08 4.89 3.45 c 1.24 1.37 1.85 3.16 1.85 5.36 c 0 2.54 -1.07 4.53 -3.19 5.98 c -2.13 1.44 -5.02 2.16 -8.66 2.16 c -4.05 0 -7.47 -0.77 -10.25 -2.32 c -2.78 -1.55 -5.27 -3.73 -7.47 -6.54 l -9.27 9.27 c 3.37 4.05 7.13 7.08 11.28 9.07 c 4.16 1.99 9.12 2.99 14.89 2.99 c 8.31 0 14.84 -1.94 19.58 -5.82 c 4.74 -3.88 7.11 -9.19 7.11 -15.92 C 280.12 665.94 279.5 662.76 278.26 660.19 z" stroke-linecap="round" />
</g>
		<g transform="matrix(1 0 0 1 -174.5 154.12)" id="Layer_1"  >
<path style="stroke: none; stroke-width: 1; stroke-dasharray: none; stroke-linecap: butt; stroke-dashoffset: 0; stroke-linejoin: miter; stroke-miterlimit: 4; fill: rgb(17,99,111); fill-rule: nonzero; opacity: 1;"  transform=" translate(-325.5, -654.12)" d="M 298.87 680.54 c 3.43 3.44 7.43 6.11 12 8.04 c 4.57 1.92 9.5 2.89 14.79 2.89 c 5.22 0 10.11 -0.94 14.68 -2.83 c 4.57 -1.89 8.53 -4.55 11.9 -7.99 c 3.36 -3.43 6.01 -7.42 7.93 -11.95 c 1.92 -4.53 2.89 -9.41 2.89 -14.63 c 0 -5.22 -0.96 -10.1 -2.89 -14.63 c -1.92 -4.53 -4.58 -8.52 -7.99 -11.95 c -3.4 -3.43 -7.37 -6.08 -11.9 -7.93 c -4.53 -1.86 -9.48 -2.78 -14.84 -2.78 c -5.29 0 -10.2 0.93 -14.73 2.78 c -4.53 1.85 -8.5 4.5 -11.9 7.93 s -6.06 7.4 -7.99 11.9 c -1.92 4.5 -2.89 9.36 -2.89 14.58 c 0 5.22 0.96 10.1 2.89 14.63 C 292.75 673.12 295.43 677.11 298.87 680.54 z M 305.41 641.28 c 1.96 -3.64 4.65 -6.47 8.09 -8.5 c 3.43 -2.03 7.42 -3.04 11.95 -3.04 c 3.5 0 6.65 0.58 9.43 1.75 c 2.78 1.17 5.2 2.83 7.26 5 s 3.64 4.72 4.74 7.68 c 1.1 2.95 1.65 6.22 1.65 9.79 c 0 4.88 -0.96 9.15 -2.89 12.83 c -1.92 3.68 -4.62 6.54 -8.09 8.6 c -3.47 2.06 -7.51 3.09 -12.11 3.09 c -3.37 0 -6.48 -0.6 -9.33 -1.8 c -2.85 -1.2 -5.29 -2.87 -7.32 -5 c -2.03 -2.13 -3.59 -4.7 -4.69 -7.73 c -1.1 -3.02 -1.65 -6.35 -1.65 -9.99 C 302.48 649.15 303.45 644.92 305.41 641.28 z" stroke-linecap="round" />
</g>
		<g transform="matrix(1 0 0 1 -97.37 154.67)" id="Layer_1"  >
<path style="stroke: none; stroke-width: 1; stroke-dasharray: none; stroke-linecap: butt; stroke-dashoffset: 0; stroke-linejoin: miter; stroke-miterlimit: 4; fill: rgb(17,99,111); fill-rule: nonzero; opacity: 1;"  transform=" translate(-402.63, -654.67)" d="M 417.98 687.65 c 4.4 -2.54 7.85 -5.99 10.36 -10.36 c 2.51 -4.36 3.76 -9.33 3.76 -14.89 v -44.51 h -14.12 v 44.93 c 0 3.16 -0.67 5.91 -2.01 8.24 c -1.34 2.34 -3.13 4.14 -5.36 5.41 c -2.23 1.27 -4.83 1.91 -7.78 1.91 c -2.95 0 -5.6 -0.63 -7.93 -1.91 c -2.34 -1.27 -4.19 -3.07 -5.56 -5.41 c -1.37 -2.33 -2.06 -5.12 -2.06 -8.35 v -44.82 h -14.12 v 44.41 c 0 5.56 1.29 10.55 3.86 14.94 c 2.58 4.4 6.1 7.87 10.56 10.41 c 4.46 2.54 9.55 3.81 15.25 3.81 C 408.54 691.46 413.59 690.19 417.98 687.65 z" stroke-linecap="round" />
</g>
		<g transform="matrix(1 0 0 1 -29.83 154.11)" id="Layer_1"  >
<polygon style="stroke: none; stroke-width: 1; stroke-dasharray: none; stroke-linecap: butt; stroke-dashoffset: 0; stroke-linejoin: miter; stroke-miterlimit: 4; fill: rgb(17,99,111); fill-rule: nonzero; opacity: 1;"  points="-7.06,36.22 7.06,36.22 7.06,-23.75 30.14,-23.75 30.14,-36.22 -30.14,-36.22 -30.14,-23.75 -7.06,-23.75 " />
</g>
		<g transform="matrix(1 0 0 1 39.73 154.11)" id="Layer_1"  >
<polygon style="stroke: none; stroke-width: 1; stroke-dasharray: none; stroke-linecap: butt; stroke-dashoffset: 0; stroke-linejoin: miter; stroke-miterlimit: 4; fill: rgb(17,99,111); fill-rule: nonzero; opacity: 1;"  points="-15.72,5 15.72,5 15.72,36.22 29.73,36.22 29.73,-36.22 15.72,-36.22 15.72,-7.37 -15.72,-7.37 -15.72,-36.22 -29.73,-36.22 -29.73,36.22 -15.72,36.22 " />
</g>
		<g transform="matrix(1 0 0 1 109.48 154.11)" id="Layer_1"  >
<polygon style="stroke: none; stroke-width: 1; stroke-dasharray: none; stroke-linecap: butt; stroke-dashoffset: 0; stroke-linejoin: miter; stroke-miterlimit: 4; fill: rgb(17,99,111); fill-rule: nonzero; opacity: 1;"  points="-11.18,36.22 25.2,36.22 25.2,23.85 -11.18,23.85 -11.18,5.31 21.69,5.31 21.69,-6.75 -11.18,-6.75 -11.18,-23.85 24.68,-23.85 24.68,-36.22 -11.18,-36.22 -14.89,-36.22 -25.19,-36.22 -25.19,36.22 -14.89,36.22 " />
</g>
		<g transform="matrix(1 0 0 1 174.6 154.11)" id="Layer_1"  >
<path style="stroke: none; stroke-width: 1; stroke-dasharray: none; stroke-linecap: butt; stroke-dashoffset: 0; stroke-linejoin: miter; stroke-miterlimit: 4; fill: rgb(17,99,111); fill-rule: nonzero; opacity: 1;"  transform=" translate(-674.6, -654.11)" d="M 660.33 660.14 h 2.41 l 23.14 30.19 h 17 l -24.16 -30.46 c 3 -0.38 5.74 -1.18 8.19 -2.41 c 3.57 -1.79 6.34 -4.24 8.3 -7.37 c 1.96 -3.12 2.94 -6.82 2.94 -11.08 c 0 -4.12 -0.98 -7.76 -2.94 -10.92 c -1.96 -3.16 -4.71 -5.65 -8.24 -7.47 c -3.54 -1.82 -7.61 -2.73 -12.21 -2.73 h -14.43 h -3.71 h -10.3 v 72.44 h 14.01 V 660.14 z M 673.42 629.33 c 3.43 0 6.08 0.94 7.93 2.83 c 1.85 1.89 2.78 4.28 2.78 7.16 c 0 3.02 -0.93 5.41 -2.78 7.16 c -1.86 1.75 -4.53 2.63 -8.04 2.63 h -12.98 v -19.78 H 673.42 z" stroke-linecap="round" />
</g>
		<g transform="matrix(1 0 0 1 240.86 154.11)" id="Layer_1"  >
<polygon style="stroke: none; stroke-width: 1; stroke-dasharray: none; stroke-linecap: butt; stroke-dashoffset: 0; stroke-linejoin: miter; stroke-miterlimit: 4; fill: rgb(17,99,111); fill-rule: nonzero; opacity: 1;"  points="-16.02,-10.4 20.04,36.22 30.03,36.22 30.03,-36.22 16.02,-36.22 16.02,10.55 -20.25,-36.22 -30.03,-36.22 -30.03,36.22 -16.02,36.22 " />
</g>
		<g transform="matrix(1 0 0 1 -248.72 232.53)" id="Layer_1"  >
<path style="stroke: none; stroke-width: 1; stroke-dasharray: none; stroke-linecap: butt; stroke-dashoffset: 0; stroke-linejoin: miter; stroke-miterlimit: 4; fill: rgb(17,99,111); fill-rule: nonzero; opacity: 1;"  transform=" translate(-251.28, -732.53)" d="M 263.05 750.86 c -2.39 1.07 -5.19 1.6 -8.43 1.6 c -2.73 0 -5.24 -0.48 -7.53 -1.45 c -2.29 -0.97 -4.28 -2.35 -5.97 -4.14 c -1.69 -1.79 -2.99 -3.9 -3.91 -6.34 c -0.92 -2.43 -1.38 -5.09 -1.38 -7.98 c 0 -2.88 0.46 -5.54 1.38 -7.98 c 0.92 -2.43 2.22 -4.55 3.91 -6.34 c 1.69 -1.79 3.68 -3.17 5.97 -4.14 c 2.29 -0.97 4.77 -1.45 7.46 -1.45 c 3.03 0 5.74 0.52 8.13 1.57 c 2.39 1.04 4.4 2.49 6.04 4.32 l 4.85 -4.85 c -2.39 -2.39 -5.12 -4.27 -8.2 -5.67 c -3.08 -1.39 -6.69 -2.09 -10.81 -2.09 c -3.68 0 -7.11 0.68 -10.29 2.05 c -3.18 1.37 -5.94 3.26 -8.28 5.67 c -2.34 2.41 -4.15 5.23 -5.44 8.46 c -1.29 3.23 -1.94 6.71 -1.94 10.44 c 0 3.68 0.65 7.13 1.94 10.36 c 1.29 3.23 3.12 6.06 5.48 8.5 c 2.36 2.44 5.13 4.34 8.31 5.7 c 3.18 1.37 6.64 2.05 10.36 2.05 c 4.03 0 7.64 -0.7 10.85 -2.09 c 3.21 -1.39 6 -3.31 8.39 -5.74 l -4.85 -4.85 C 267.44 748.33 265.43 749.79 263.05 750.86 z" stroke-linecap="round" />
</g>
		<g transform="matrix(1 0 0 1 -196.13 232.55)" id="Layer_1"  >
<path style="stroke: none; stroke-width: 1; stroke-dasharray: none; stroke-linecap: butt; stroke-dashoffset: 0; stroke-linejoin: miter; stroke-miterlimit: 4; fill: rgb(17,99,111); fill-rule: nonzero; opacity: 1;"  transform=" translate(-303.87, -732.55)" d="M 322.39 713.61 c -2.39 -2.43 -5.16 -4.32 -8.31 -5.67 c -3.16 -1.34 -6.57 -2.01 -10.25 -2.01 c -3.68 0 -7.1 0.67 -10.25 2.01 c -3.16 1.34 -5.92 3.23 -8.28 5.67 c -2.36 2.44 -4.21 5.26 -5.55 8.46 c -1.34 3.21 -2.01 6.67 -2.01 10.4 c 0 3.68 0.67 7.13 2.01 10.36 c 1.34 3.23 3.21 6.08 5.59 8.54 c 2.39 2.46 5.17 4.37 8.35 5.74 c 3.18 1.37 6.61 2.05 10.29 2.05 c 3.63 0 7.02 -0.68 10.18 -2.05 c 3.16 -1.37 5.91 -3.27 8.28 -5.7 c 2.36 -2.43 4.21 -5.27 5.55 -8.5 c 1.34 -3.23 2.01 -6.69 2.01 -10.36 c 0 -3.73 -0.67 -7.21 -2.01 -10.44 C 326.65 718.88 324.78 716.05 322.39 713.61 z M 320.27 742.8 c -1.62 3.01 -3.84 5.37 -6.67 7.08 c -2.83 1.71 -6.09 2.57 -9.77 2.57 c -2.73 0 -5.26 -0.5 -7.57 -1.49 c -2.31 -0.99 -4.3 -2.37 -5.96 -4.14 c -1.67 -1.76 -2.96 -3.88 -3.88 -6.34 c -0.92 -2.46 -1.38 -5.13 -1.38 -8.02 c 0 -3.88 0.81 -7.31 2.42 -10.29 c 1.61 -2.98 3.83 -5.32 6.64 -7.01 c 2.81 -1.69 6.05 -2.54 9.73 -2.54 c 2.78 0 5.32 0.48 7.61 1.45 c 2.29 0.97 4.27 2.35 5.96 4.14 c 1.69 1.79 2.99 3.89 3.91 6.3 c 0.92 2.41 1.38 5.06 1.38 7.94 C 322.69 736.35 321.88 739.8 320.27 742.8 z" stroke-linecap="round" />
</g>
		<g transform="matrix(1 0 0 1 -140.03 232.55)" id="Layer_1"  >
<polygon style="stroke: none; stroke-width: 1; stroke-dasharray: none; stroke-linecap: butt; stroke-dashoffset: 0; stroke-linejoin: miter; stroke-miterlimit: 4; fill: rgb(17,99,111); fill-rule: nonzero; opacity: 1;"  points="13.34,12.41 -15.44,-25.87 -20.36,-25.87 -20.36,25.87 -13.35,25.87 -13.35,-12.5 15.44,25.87 20.35,25.87 20.35,-25.87 13.34,-25.87 " />
</g>
		<g transform="matrix(1 0 0 1 -87.94 232.55)" id="Layer_1"  >
<polygon style="stroke: none; stroke-width: 1; stroke-dasharray: none; stroke-linecap: butt; stroke-dashoffset: 0; stroke-linejoin: miter; stroke-miterlimit: 4; fill: rgb(17,99,111); fill-rule: nonzero; opacity: 1;"  points="0,14.38 -15.69,-25.87 -23.38,-25.87 -2.57,25.87 2.5,25.87 23.38,-25.87 15.84,-25.87 " />
</g>
		<g transform="matrix(1 0 0 1 -38.92 232.55)" id="Layer_1"  >
<polygon style="stroke: none; stroke-width: 1; stroke-dasharray: none; stroke-linecap: butt; stroke-dashoffset: 0; stroke-linejoin: miter; stroke-miterlimit: 4; fill: rgb(17,99,111); fill-rule: nonzero; opacity: 1;"  points="-10.22,2.54 14.76,2.54 14.76,-3.65 -10.22,-3.65 -10.22,-19.46 16.85,-19.46 16.85,-25.87 -10.22,-25.87 -12.46,-25.87 -17.23,-25.87 -17.23,25.87 -12.46,25.87 -10.22,25.87 17.22,25.87 17.22,19.46 -10.22,19.46 " />
</g>
		<g transform="matrix(1 0 0 1 7.19 232.56)" id="Layer_1"  >
<path style="stroke: none; stroke-width: 1; stroke-dasharray: none; stroke-linecap: butt; stroke-dashoffset: 0; stroke-linejoin: miter; stroke-miterlimit: 4; fill: rgb(17,99,111); fill-rule: nonzero; opacity: 1;"  transform=" translate(-507.19, -732.56)" d="M 515.43 734.08 c 2.43 -1.22 4.31 -2.92 5.63 -5.11 c 1.32 -2.19 1.98 -4.75 1.98 -7.68 c 0 -2.83 -0.66 -5.34 -1.98 -7.53 c -1.32 -2.19 -3.19 -3.91 -5.63 -5.18 c -2.44 -1.27 -5.29 -1.9 -8.57 -1.9 h -12 h -2.31 h -4.7 v 51.75 h 7.01 v -22.52 h 4.57 l 18.24 22.52 h 8.87 l -18.59 -22.54 C 510.78 735.76 513.27 735.16 515.43 734.08 z M 494.85 712.79 h 11.78 c 2.98 0 5.28 0.82 6.9 2.46 c 1.61 1.64 2.42 3.7 2.42 6.19 c 0 2.64 -0.81 4.72 -2.42 6.26 c -1.62 1.54 -3.94 2.31 -6.97 2.31 h -11.71 V 712.79 z" stroke-linecap="round" />
</g>
		<g transform="matrix(1 0 0 1 55.85 232.54)" id="Layer_1"  >
<path style="stroke: none; stroke-width: 1; stroke-dasharray: none; stroke-linecap: butt; stroke-dashoffset: 0; stroke-linejoin: miter; stroke-miterlimit: 4; fill: rgb(17,99,111); fill-rule: nonzero; opacity: 1;"  transform=" translate(-555.85, -732.54)" d="M 555.92 737.32 h 17.91 c -0.31 2.59 -0.97 4.87 -1.99 6.82 c -1.42 2.71 -3.46 4.76 -6.11 6.15 c -2.66 1.39 -5.83 2.09 -9.51 2.09 c -3.53 0 -6.69 -0.84 -9.47 -2.53 c -2.78 -1.69 -5 -4.03 -6.64 -7.01 c -1.64 -2.98 -2.46 -6.44 -2.46 -10.36 c 0 -3.88 0.81 -7.31 2.42 -10.29 c 1.61 -2.98 3.88 -5.32 6.79 -7.01 c 2.91 -1.69 6.25 -2.54 10.03 -2.54 c 3.18 0 6.11 0.63 8.8 1.9 s 4.85 3.09 6.49 5.48 l 4.85 -4.85 c -2.34 -2.98 -5.24 -5.27 -8.72 -6.86 c -3.48 -1.59 -7.28 -2.39 -11.41 -2.39 c -3.78 0 -7.27 0.67 -10.48 2.01 c -3.21 1.34 -6 3.23 -8.39 5.67 c -2.39 2.44 -4.25 5.26 -5.59 8.46 c -1.34 3.21 -2.01 6.67 -2.01 10.4 c 0 3.73 0.67 7.21 2.01 10.44 c 1.34 3.23 3.19 6.06 5.55 8.5 c 2.36 2.44 5.12 4.34 8.28 5.7 c 3.16 1.37 6.52 2.05 10.1 2.05 c 4.87 0 9.18 -1.02 12.94 -3.06 c 3.75 -2.04 6.69 -5.08 8.8 -9.13 c 2.11 -4.05 3.17 -9.08 3.17 -15.1 v -1.04 h -25.35 V 737.32 z" stroke-linecap="round" />
</g>
		<g transform="matrix(1 0 0 1 107.81 232.55)" id="Layer_1"  >
<polygon style="stroke: none; stroke-width: 1; stroke-dasharray: none; stroke-linecap: butt; stroke-dashoffset: 0; stroke-linejoin: miter; stroke-miterlimit: 4; fill: rgb(17,99,111); fill-rule: nonzero; opacity: 1;"  points="-10.21,2.54 14.76,2.54 14.76,-3.65 -10.21,-3.65 -10.21,-19.46 16.85,-19.46 16.85,-25.87 -10.21,-25.87 -12.45,-25.87 -17.22,-25.87 -17.22,25.87 -12.45,25.87 -10.21,25.87 17.22,25.87 17.22,19.46 -10.21,19.46 " />
</g>
		<g transform="matrix(1 0 0 1 154.93 232.55)" id="Layer_1"  >
<polygon style="stroke: none; stroke-width: 1; stroke-dasharray: none; stroke-linecap: butt; stroke-dashoffset: 0; stroke-linejoin: miter; stroke-miterlimit: 4; fill: rgb(17,99,111); fill-rule: nonzero; opacity: 1;"  points="13.35,12.41 -15.43,-25.87 -20.35,-25.87 -20.35,25.87 -13.34,25.87 -13.34,-12.5 15.44,25.87 20.36,25.87 20.36,-25.87 13.35,-25.87 " />
</g>
		<g transform="matrix(1 0 0 1 207.58 232.53)" id="Layer_1"  >
<path style="stroke: none; stroke-width: 1; stroke-dasharray: none; stroke-linecap: butt; stroke-dashoffset: 0; stroke-linejoin: miter; stroke-miterlimit: 4; fill: rgb(17,99,111); fill-rule: nonzero; opacity: 1;"  transform=" translate(-707.58, -732.53)" d="M 719.35 750.86 c -2.39 1.07 -5.19 1.6 -8.43 1.6 c -2.73 0 -5.24 -0.48 -7.53 -1.45 s -4.28 -2.35 -5.96 -4.14 c -1.69 -1.79 -3 -3.9 -3.91 -6.34 c -0.92 -2.43 -1.38 -5.09 -1.38 -7.98 c 0 -2.88 0.46 -5.54 1.38 -7.98 c 0.92 -2.43 2.22 -4.55 3.91 -6.34 c 1.69 -1.79 3.68 -3.17 5.96 -4.14 c 2.29 -0.97 4.77 -1.45 7.46 -1.45 c 3.03 0 5.74 0.52 8.13 1.57 c 2.39 1.04 4.4 2.49 6.04 4.32 l 4.85 -4.85 c -2.39 -2.39 -5.12 -4.27 -8.2 -5.67 c -3.08 -1.39 -6.69 -2.09 -10.81 -2.09 c -3.68 0 -7.11 0.68 -10.29 2.05 c -3.18 1.37 -5.94 3.26 -8.28 5.67 c -2.34 2.41 -4.15 5.23 -5.44 8.46 c -1.29 3.23 -1.94 6.71 -1.94 10.44 c 0 3.68 0.65 7.13 1.94 10.36 c 1.29 3.23 3.12 6.06 5.48 8.5 c 2.36 2.44 5.13 4.34 8.31 5.7 c 3.18 1.37 6.64 2.05 10.36 2.05 c 4.03 0 7.64 -0.7 10.85 -2.09 c 3.21 -1.39 6 -3.31 8.39 -5.74 l -4.85 -4.85 C 723.75 748.33 721.74 749.79 719.35 750.86 z" stroke-linecap="round" />
</g>
		<g transform="matrix(1 0 0 1 256.03 232.55)" id="Layer_1"  >
<polygon style="stroke: none; stroke-width: 1; stroke-dasharray: none; stroke-linecap: butt; stroke-dashoffset: 0; stroke-linejoin: miter; stroke-miterlimit: 4; fill: rgb(17,99,111); fill-rule: nonzero; opacity: 1;"  points="-10.21,19.46 -10.21,2.54 14.76,2.54 14.76,-3.65 -10.21,-3.65 -10.21,-19.46 16.86,-19.46 16.86,-25.87 -10.21,-25.87 -12.45,-25.87 -17.23,-25.87 -17.23,25.87 -12.45,25.87 -10.21,25.87 17.23,25.87 17.23,19.46 " />
</g>
		<g transform="matrix(1 0 0 1 -120.18 -148.22)" id="Layer_1"  >
<path style="stroke: none; stroke-width: 1; stroke-dasharray: none; stroke-linecap: butt; stroke-dashoffset: 0; stroke-linejoin: miter; stroke-miterlimit: 4; fill: rgb(255,120,2); fill-rule: nonzero; opacity: 1;"  transform=" translate(-379.82, -351.77)" d="M 338.6 240.51 c -53.74 0 -98.55 38.24 -108.68 89.01 c -1.42 7.05 -2.15 14.34 -2.15 21.82 v 0.89 c 0 36.36 17.52 68.61 44.56 88.81 c 18.47 13.84 41.4 22 66.26 22 l 52.64 0 v 0 h 28.35 c 11.45 0 20.73 -9.28 20.73 -20.73 v -3.04 c 0 -11.45 -9.28 -20.73 -20.73 -20.73 l 0 0 c -0.52 -0.04 -1.04 -0.06 -1.56 -0.06 H 338.6 c -6.7 0 -13.19 -1.01 -19.3 -2.88 c -20.18 -6.16 -36.3 -21.69 -43.25 -41.51 c -2.41 -6.85 -3.71 -14.2 -3.71 -21.86 v -0.89 c 0 -7.64 1.3 -14.99 3.69 -21.82 c 6.95 -19.85 23.07 -35.41 43.27 -41.57 c 6.12 -1.86 12.6 -2.88 19.3 -2.88 h 30.75 v -0.06 h 140.27 c 12.29 0 22.25 -9.96 22.25 -22.25 v 0 c 0 -12.29 -9.96 -22.25 -22.25 -22.25 H 338.6 z" stroke-linecap="round" />
</g>
		<g transform="matrix(1 0 0 1 -120.18 -59.22)" id="Layer_1"  >
<path style="stroke: none; stroke-width: 1; stroke-dasharray: none; stroke-linecap: butt; stroke-dashoffset: 0; stroke-linejoin: miter; stroke-miterlimit: 4; fill: rgb(255,120,2); fill-rule: nonzero; opacity: 1;"  transform=" translate(-379.82, -440.78)" d="M 492.59 355.71 c -1.72 -1.46 -3.48 -2.88 -5.29 -4.21 c -0.02 -0.02 -0.04 -0.04 -0.06 -0.04 c -13.59 -10.15 -29.57 -17.24 -46.93 -20.28 c -1.72 -0.3 -3.44 -0.57 -5.19 -0.77 c -4.62 -0.59 -9.3 -0.89 -14.06 -0.89 l -52.76 0 v 0 h -28.29 c -11.48 0 -20.78 9.31 -20.78 20.78 v 2.94 c 0 11.48 9.31 20.78 20.78 20.78 h 0 c 0.52 0.04 1.04 0.06 1.56 0.06 h 79.49 c 4.82 0 9.52 0.53 14.06 1.52 c 1.76 0.36 3.48 0.81 5.19 1.34 c 20.2 6.14 36.32 21.69 43.29 41.53 c 2.11 6 3.36 12.4 3.65 19.04 c 0.04 0.93 0.06 1.88 0.06 2.84 v 0.89 c 0 0.95 -0.02 1.9 -0.06 2.84 c -0.28 6.62 -1.54 12.98 -3.63 18.96 c -6.95 19.87 -23.09 35.45 -43.31 41.59 c -6.1 1.86 -12.56 2.86 -19.24 2.86 H 331.2 v 0.06 h -81.18 c -12.29 0 -22.25 9.96 -22.25 22.25 v 0 c 0 12.29 9.96 22.25 22.25 22.25 h 171.04 c 4.76 0 9.44 -0.3 14.06 -0.89 c 1.74 -0.2 3.46 -0.47 5.19 -0.77 c 17.36 -3.04 33.34 -10.13 46.93 -20.28 c 13.59 -10.13 24.77 -23.3 32.55 -38.53 c 4.54 -8.87 7.92 -18.47 9.93 -28.54 c 1.42 -7.05 2.15 -14.34 2.15 -21.8 v -0.89 C 531.87 406.39 516.61 376.03 492.59 355.71 z" stroke-linecap="round" />
</g>
		<g transform="matrix(1 0 0 1 163.97 -103.65)" id="Layer_1"  >
<path style="stroke: none; stroke-width: 1; stroke-dasharray: none; stroke-linecap: butt; stroke-dashoffset: 0; stroke-linejoin: miter; stroke-miterlimit: 4; fill: rgb(255,120,2); fill-rule: nonzero; opacity: 1;"  transform=" translate(-663.97, -396.35)" d="M 708.32 240.51 v 0.17 c -23.6 0.24 -45.97 5.74 -65.95 15.37 c -15.33 7.38 -29.25 17.21 -41.27 28.97 c -0.05 0.05 -0.11 0.1 -0.16 0.15 c -13.04 12.78 -23.84 27.81 -31.76 44.5 c -3.97 8.34 -7.21 17.09 -9.64 26.19 c -3.48 12.92 -5.35 26.54 -5.35 40.55 v 0.02 c 0 23.89 5.39 46.54 14.99 66.75 c 4.82 10.17 10.72 19.73 17.56 28.54 c 4.36 5.64 9.12 10.99 14.2 15.96 c 12.05 11.83 26.03 21.7 41.43 29.12 c 19.33 9.32 40.88 14.77 63.63 15.34 v 0.06 h 3.95 h 40.96 h 0.53 c 12.32 0 22.3 -9.98 22.3 -22.3 v 0 c 0 -12.32 -9.98 -22.3 -22.3 -22.3 h -0.17 c -0.09 0 -0.18 -0.01 -0.27 -0.01 h -0.11 l -10.98 0.01 h -31.34 c -24.87 -0.31 -47.8 -8.81 -66.19 -22.96 c -8.04 -6.14 -15.22 -13.37 -21.29 -21.45 c -13.99 -18.62 -22.32 -41.73 -22.32 -66.77 c 0 -25.01 8.33 -48.12 22.32 -66.74 c 6.08 -8.08 13.27 -15.34 21.29 -21.47 c 11.28 -8.67 24.25 -15.22 38.3 -19.06 c 12.21 -3.34 21.88 -3.71 29.27 -3.91 c 0.67 -0.02 1.36 -0.04 2.11 -0.06 c 2.76 -0.06 5.99 -0.11 9.59 -0.15 h 29.84 c 12.29 0 22.25 -9.96 22.25 -22.25 v 0 c 0 -12.29 -9.96 -22.25 -22.25 -22.25 H 708.32 z" stroke-linecap="round" />
</g>
		<g transform="matrix(1 0 0 1 208.32 -103.72)" id="Layer_1"  >
<path style="stroke: none; stroke-width: 1; stroke-dasharray: none; stroke-linecap: butt; stroke-dashoffset: 0; stroke-linejoin: miter; stroke-miterlimit: 4; fill: rgb(255,120,2); fill-rule: nonzero; opacity: 1;"  transform=" translate(-708.32, -396.28)" d="M 642.9 396.28 L 642.9 396.28 c 0 36.13 29.29 65.42 65.42 65.42 h 0 c 36.13 0 65.42 -29.29 65.42 -65.42 v 0 c 0 -36.13 -29.29 -65.42 -65.42 -65.42 h 0 C 672.19 330.86 642.9 360.15 642.9 396.28 z" stroke-linecap="round" />
</g>
</g>
</g>
</svg>